<?xml version="1.0" encoding="UTF-8"?>
<svg viewBox="0 0 744.09447 1052.362179" xmlns="http://www.w3.org/2000/svg">
 <g transform="matrix(1.0778 0 0 1.2008 -38.708 -137.96)">
  <path transform="matrix(2.7496 0 0 3.0749 -577.8 -680.5)" d="m427.02 379.49a79.985 65.442 0 1 1 3.3e-4 -0.02526" fill="#ffff02"/>
  <path d="m440.79 671.11c42.417-17.557 135.95-74.046 136.4-189.55 0.4584-116.16-104.05-203.53-210.66-200.81-104.97 2.7194-217.69 66.193-218.48 200.37-0.79212 133.52 121.3 198.69 312.46 244.17 114.33 27.804-276.1 24.686-230 37.904 56.843 16.301 319.52 31.547 240.4 49.997-76.091 17.742-198.01 8.9014-241.7 30.538-39.182 19.405 426.59 17.44 189.69 60.571" fill="none" stroke="#000" stroke-linecap="round" stroke-linejoin="round" stroke-width="38.849"/>
  <path d="m281.49 443.66c49.678 21.428 89.402 54.291 166.5-6.796" fill="none" stroke="#000" stroke-linecap="round" stroke-width="38.301"/>
  <path d="m85.51 279.7 47.642 52.503" fill="none" stroke="#000" stroke-linecap="round" stroke-width="38.242"/>
  <path d="m240.1 169.84z" fill="none" stroke="#000" stroke-width=".73543"/>
  <path d="m222.6 170.81 23.335 57.365" fill="none" stroke="#000" stroke-linecap="round" stroke-width="38.242"/>
  <path d="m452.06 152.34-13.612 61.254" fill="none" stroke="#000" stroke-linecap="round" stroke-width="38.242"/>
  <path d="m667.91 247.62-55.42 43.753" fill="none" stroke="#000" stroke-linecap="round" stroke-width="38.242"/>
 </g>
 <path transform="matrix(1.9932 0 0 1.1767 -281.24 -340.44)" d="m310.37 548.12a28.045 52.351 0 1 1 1.2e-4 -0.02021" fill="#fff"/>
</svg>
