<svg xmlns="http://www.w3.org/2000/svg" version="1.1" xmlns:xlink="http://www.w3.org/1999/xlink" xmlns:svgjs="http://svgjs.dev/svgjs" width="1000" height="1000" viewBox="0 0 1000 1000"><rect width="1000" height="1000" fill="#000000"></rect><g transform="matrix(0.7,0,0,0.7,149.5757576121656,374.6437956270595)"><svg viewBox="0 0 396 142" data-background-color="#c56e33" preserveAspectRatio="xMidYMid meet" height="358" width="1000" xmlns="http://www.w3.org/2000/svg" xmlns:xlink="http://www.w3.org/1999/xlink"><defs></defs><g id="tight-bounds" transform="matrix(1,0,0,1,0.24000002059659664,0.03185116441400737)"><svg viewBox="0 0 395.52 141.93630118611452" height="141.93630118611452" width="395.52"><g><svg viewBox="0 0 395.52 141.93630118611452" height="141.93630118611452" width="395.52"><g><svg viewBox="0 0 395.52 141.93630118611452" height="141.93630118611452" width="395.52"><g><svg viewBox="0 0 395.52 141.93630118611452" height="141.93630118611452" width="395.52"><g><rect width="75.54431999999998" height="8.995001729344859" y="128.11612833413906" fill="#2a160c" data-fill-palette-color="tertiary"></rect><rect width="75.54431999999998" height="8.995001729344859" y="128.11612833413906" x="319.97568" fill="#2a160c" data-fill-palette-color="tertiary"></rect></g><g><svg viewBox="0 0 395.52 99.74383226557951" height="99.74383226557951" width="395.52"><g transform="matrix(1,0,0,1,0,0)"><svg width="395.52" viewBox="0.45000001788139343 -37.599998474121094 171.69000244140625 43.29999923706055" height="99.74383226557951" data-palette-color="#2a160c"><path d="M23.85-20.35L26.75-33.95Q24.7-32.85 22.4-29.83 20.1-26.8 17.75-22.1L17.75-22.1Q19.55-21.75 21.08-21.3 22.6-20.85 23.85-20.35L23.85-20.35ZM30.65-37.5L30.65-37.5Q31.7-37.5 32.75-37.33 33.8-37.15 34.6-36.8L34.6-36.8 26.75 0 19.55 0 23.4-18.15Q21.65-18.95 20.1-19.38 18.55-19.8 16.7-19.95L16.7-19.95Q13.85-13.75 12.03-7.35 10.2-0.95 10.2 2.9L10.2 2.9Q10.2 3.8 10.38 4.48 10.55 5.15 10.9 5.7L10.9 5.7Q7.1 5.7 5.65 4.4 4.2 3.1 4.2 0.4L4.2 0.4Q4.2-2.95 6.23-8.55 8.25-14.15 11.55-19.95L11.55-19.95Q9-19.8 7.58-19.15 6.15-18.5 5.7-17.35L5.7-17.35Q5.9-17.35 6.13-16.82 6.35-16.3 6.35-15.8L6.35-15.8Q6.35-14.95 5.55-14.4 4.75-13.85 3.55-13.85L3.55-13.85Q2.15-13.85 1.3-14.63 0.45-15.4 0.45-16.75L0.45-16.75Q0.45-19.35 3.38-21.13 6.3-22.9 10.65-22.9L10.65-22.9Q11.15-22.9 11.8-22.88 12.45-22.85 13.25-22.75L13.25-22.75Q17.65-29.7 22.2-33.6 26.75-37.5 30.65-37.5ZM40.05-34L40.05-34Q42.6-35.65 45.52-36.58 48.45-37.5 51.25-37.5L51.25-37.5Q51.6-37.5 52.02-37.48 52.45-37.45 53.25-37.4L53.25-37.4 50-22.1Q52.1-25 56.72-31.15 61.35-37.3 61.35-37.25L61.35-37.25 66.6-37.25 52.7-21.25Q52.9-21.25 53.07-21.25 53.25-21.25 53.65-21.3L53.65-21.3 54.45-21.3Q57.6-21.3 59.12-20 60.65-18.7 60.65-15.95L60.65-15.95Q60.65-14.8 60.4-13.33 60.15-11.85 59.3-8.85L59.3-8.85Q58.6-6.3 58.4-5.2 58.2-4.1 58.2-3.3L58.2-3.3Q58.2-2.15 58.72-1.25 59.25-0.35 60.15 0L60.15 0Q58.7 0.4 57.42 0.63 56.15 0.85 55.2 0.85L55.2 0.85Q53.25 0.85 52.27 0.03 51.3-0.8 51.3-2.5L51.3-2.5Q51.3-3.35 51.55-4.58 51.8-5.8 52.55-8.65L52.55-8.65Q53.4-11.75 53.67-13.18 53.95-14.6 53.95-15.65L53.95-15.65Q53.95-17.35 53.2-18.2 52.45-19.05 50.95-19.05L50.95-19.05Q50.7-19.05 50.37-19 50.05-18.95 49.3-18.85L49.3-18.85 45.3 0 38.1 0 45.35-34Q41.95-32.6 40.15-29.78 38.35-26.95 38.35-23.05L38.35-23.05Q38.35-22.1 38.47-21.4 38.6-20.7 38.9-20.05L38.9-20.05Q39-19.85 39.02-19.78 39.05-19.7 39.05-19.65L39.05-19.65Q36.25-19.65 34.97-20.83 33.7-22 33.7-24.5L33.7-24.5Q33.7-27 35.37-29.5 37.05-32 40.05-34ZM72.5-8.95L72.5-8.95Q72.5-6.55 73.72-5.23 74.95-3.9 77.25-3.9L77.25-3.9Q79.9-3.9 82.6-5.35 85.3-6.8 86.5-9L86.5-9 87.65-8.5Q85.8-4.25 81.72-1.68 77.65 0.9 73 0.9L73 0.9Q68.7 0.9 66.25-1.5 63.8-3.9 63.8-7.9L63.8-7.9Q63.8-12.25 66.45-16.07 69.1-19.9 73.05-20.85L73.05-20.85Q71.55-21.9 70.77-23.45 70-25 70-26.85L70-26.85Q70-31.05 73.22-34.33 76.45-37.6 80.95-37.6L80.95-37.6Q84.15-37.6 86.12-35.9 88.1-34.2 88.1-31.35L88.1-31.35Q88.1-29.15 87.02-27.65 85.95-26.15 84.4-26.15L84.4-26.15Q83.7-26.15 83.12-26.5 82.55-26.85 82.05-27.5L82.05-27.5Q82.95-27.8 83.6-29.13 84.25-30.45 84.25-31.85L84.25-31.85Q84.25-33.15 83.5-33.9 82.75-34.65 81.5-34.65L81.5-34.65Q79.4-34.65 77.9-32.52 76.4-30.4 76.4-27.6L76.4-27.6Q76.4-25.1 77.72-23.33 79.05-21.55 81.45-20.9L81.45-20.9Q77.75-20.05 75.12-16.43 72.5-12.8 72.5-8.95ZM116.54-36.3L116.54-36.3Q118.04-36.3 119.59-36.58 121.14-36.85 122.34-37.35L122.34-37.35Q122.29-34.15 120.72-32.58 119.14-31 116.09-31L116.09-31Q114.64-31 112.87-31.25 111.09-31.5 108.34-32.1L108.34-32.1 101.44 0 94.24 0 101.34-33.1 100.74-33.1Q95.89-33.1 93.62-30.63 91.34-28.15 91.34-23L91.34-23Q91.34-22.05 91.47-21.35 91.59-20.65 91.89-20L91.89-20Q91.99-19.8 92.02-19.73 92.04-19.65 92.04-19.6L92.04-19.6Q89.24-19.6 87.97-20.78 86.69-21.95 86.69-24.45L86.69-24.45Q86.69-30.4 91.17-33.93 95.64-37.45 103.74-37.45L103.74-37.45Q105.39-37.45 106.92-37.33 108.44-37.2 110.84-36.85L110.84-36.85Q112.94-36.5 114.12-36.4 115.29-36.3 116.54-36.3ZM122.89-3.2L122.89-3.2Q124.04-3.15 124.59-3.15 125.14-3.15 125.59-3.15L125.59-3.15Q127.89-3.15 129.14-3.43 130.39-3.7 130.79-4.25L130.79-4.25Q130.39-4.25 130.14-4.67 129.89-5.1 129.89-5.8L129.89-5.8Q129.89-7.15 130.74-7.93 131.59-8.7 132.89-8.7L132.89-8.7Q134.09-8.7 134.77-7.9 135.44-7.1 135.44-5.8L135.44-5.8Q135.44-3.55 133.59-1.78 131.74 0 129.04 0L129.04 0 110.99 0 128.49-34.8Q128.24-34.8 127.89-34.8 127.54-34.8 126.74-34.85L126.74-34.85Q125.64-34.9 125.07-34.9 124.49-34.9 123.99-34.9L123.99-34.9Q121.64-34.9 120.52-34.63 119.39-34.35 119.39-33.8L119.39-33.8Q119.74-33.8 119.99-33.38 120.24-32.95 120.24-32.2L120.24-32.2Q120.24-30.85 119.42-30.1 118.59-29.35 117.29-29.35L117.29-29.35Q116.09-29.35 115.42-30.15 114.74-30.95 114.74-32.3L114.74-32.3Q114.74-34.45 116.47-35.98 118.19-37.5 120.89-37.5L120.89-37.5 138.04-37.5 120.79-3.25Q121.09-3.25 121.54-3.25 121.99-3.25 122.89-3.2ZM161.39-20.35L164.29-33.95Q162.24-32.85 159.94-29.83 157.64-26.8 155.29-22.1L155.29-22.1Q157.09-21.75 158.61-21.3 160.14-20.85 161.39-20.35L161.39-20.35ZM168.19-37.5L168.19-37.5Q169.24-37.5 170.29-37.33 171.34-37.15 172.14-36.8L172.14-36.8 164.29 0 157.09 0 160.94-18.15Q159.19-18.95 157.64-19.38 156.09-19.8 154.24-19.95L154.24-19.95Q151.39-13.75 149.56-7.35 147.74-0.95 147.74 2.9L147.74 2.9Q147.74 3.8 147.91 4.48 148.09 5.15 148.44 5.7L148.44 5.7Q144.64 5.7 143.19 4.4 141.74 3.1 141.74 0.4L141.74 0.4Q141.74-2.95 143.76-8.55 145.79-14.15 149.09-19.95L149.09-19.95Q146.54-19.8 145.11-19.15 143.69-18.5 143.24-17.35L143.24-17.35Q143.44-17.35 143.66-16.82 143.89-16.3 143.89-15.8L143.89-15.8Q143.89-14.95 143.09-14.4 142.29-13.85 141.09-13.85L141.09-13.85Q139.69-13.85 138.84-14.63 137.99-15.4 137.99-16.75L137.99-16.75Q137.99-19.35 140.91-21.13 143.84-22.9 148.19-22.9L148.19-22.9Q148.69-22.9 149.34-22.88 149.99-22.85 150.79-22.75L150.79-22.75Q155.19-29.7 159.74-33.6 164.29-37.5 168.19-37.5Z" opacity="1" transform="matrix(1,0,0,1,0,0)" fill="#ffffff" class="undefined-text-0" data-fill-palette-color="primary" id="text-0"></path></svg></g></svg></g><g transform="matrix(1,0,0,1,75.54431999999998,123.29095721150847)"><svg viewBox="0 0 244.43136 18.64534397460605" height="18.64534397460605" width="244.43136"><g transform="matrix(1,0,0,1,8,0)"><svg width="228.43136" viewBox="0.75 -35.5 440.989990234375 36" height="18.64534397460605" data-palette-color="#e6b17e"><path d="M4.3 0L0.75-35 6.05-35 8.5-8.1 8.6-8.1 11.2-35 17.2-35 19.8-8.1 19.9-8.1 22.35-35 27.1-35 23.55 0 16.7 0 14.2-23.6 14.1-23.6 11.6 0 4.3 0ZM29.9 0L29.9-35 44.9-35 44.9-30 35.4-30 35.4-20.75 42.95-20.75 42.95-15.75 35.4-15.75 35.4-5 44.9-5 44.9 0 29.9 0ZM48.05 0L48.05-35 56.35-35Q60.6-35 62.55-33.02 64.5-31.05 64.5-26.95L64.5-26.95 64.5-25.55Q64.5-22.85 63.62-21.15 62.75-19.45 60.95-18.7L60.95-18.7 60.95-18.6Q65.05-17.2 65.05-11.3L65.05-11.3 65.05-8.3Q65.05-4.25 62.92-2.13 60.8 0 56.7 0L56.7 0 48.05 0ZM53.55-20.75L55.7-20.75Q57.35-20.75 58.17-21.6 59-22.45 59-24.45L59-24.45 59-26.4Q59-28.3 58.32-29.15 57.65-30 56.2-30L56.2-30 53.55-30 53.55-20.75ZM53.55-5L56.7-5Q58.15-5 58.85-5.78 59.55-6.55 59.55-8.45L59.55-8.45 59.55-11.5Q59.55-13.9 58.72-14.83 57.9-15.75 56-15.75L56-15.75 53.55-15.75 53.55-5ZM76.24 0L76.24-35 84.64-35Q88.74-35 90.79-32.8 92.84-30.6 92.84-26.35L92.84-26.35 92.84-8.65Q92.84-4.4 90.79-2.2 88.74 0 84.64 0L84.64 0 76.24 0ZM81.74-5L84.54-5Q85.89-5 86.62-5.8 87.34-6.6 87.34-8.4L87.34-8.4 87.34-26.6Q87.34-28.4 86.62-29.2 85.89-30 84.54-30L84.54-30 81.74-30 81.74-5ZM96.54 0L96.54-35 111.54-35 111.54-30 102.04-30 102.04-20.75 109.59-20.75 109.59-15.75 102.04-15.75 102.04-5 111.54-5 111.54 0 96.54 0ZM118.54 0L113.24-35 118.79-35 122.39-7.85 122.49-7.85 126.09-35 131.14-35 125.84 0 118.54 0ZM133.78 0L133.78-35 148.78-35 148.78-30 139.28-30 139.28-20.75 146.83-20.75 146.83-15.75 139.28-15.75 139.28-5 148.78-5 148.78 0 133.78 0ZM151.93 0L151.93-35 157.43-35 157.43-5 166.48-5 166.48 0 151.93 0ZM176.88 0.5Q172.83 0.5 170.68-1.8 168.53-4.1 168.53-8.3L168.53-8.3 168.53-26.7Q168.53-30.9 170.68-33.2 172.83-35.5 176.88-35.5L176.88-35.5Q180.93-35.5 183.08-33.2 185.23-30.9 185.23-26.7L185.23-26.7 185.23-8.3Q185.23-4.1 183.08-1.8 180.93 0.5 176.88 0.5L176.88 0.5ZM176.88-4.5Q179.73-4.5 179.73-7.95L179.73-7.95 179.73-27.05Q179.73-30.5 176.88-30.5L176.88-30.5Q174.03-30.5 174.03-27.05L174.03-27.05 174.03-7.95Q174.03-4.5 176.88-4.5L176.88-4.5ZM188.93 0L188.93-35 197.03-35Q201.13-35 203.18-32.8 205.23-30.6 205.23-26.35L205.23-26.35 205.23-22.9Q205.23-18.65 203.18-16.45 201.13-14.25 197.03-14.25L197.03-14.25 194.43-14.25 194.43 0 188.93 0ZM194.43-19.25L197.03-19.25Q198.38-19.25 199.05-20 199.73-20.75 199.73-22.55L199.73-22.55 199.73-26.7Q199.73-28.5 199.05-29.25 198.38-30 197.03-30L197.03-30 194.43-30 194.43-19.25ZM208.22 0L208.22-35 216.07-35 219.57-9.95 219.67-9.95 223.17-35 231.02-35 231.02 0 225.82 0 225.82-26.5 225.72-26.5 221.72 0 217.12 0 213.12-26.5 213.02-26.5 213.02 0 208.22 0ZM235.12 0L235.12-35 250.12-35 250.12-30 240.62-30 240.62-20.75 248.17-20.75 248.17-15.75 240.62-15.75 240.62-5 250.12-5 250.12 0 235.12 0ZM253.27 0L253.27-35 260.17-35 265.52-14.05 265.62-14.05 265.62-35 270.52-35 270.52 0 264.87 0 258.27-25.55 258.17-25.55 258.17 0 253.27 0ZM278.92 0L278.92-30 273.17-30 273.17-35 290.17-35 290.17-30 284.42-30 284.42 0 278.92 0ZM307.96 0.5Q303.96 0.5 301.91-1.78 299.86-4.05 299.86-8.3L299.86-8.3 299.86-10.3 305.06-10.3 305.06-7.9Q305.06-4.5 307.91-4.5L307.91-4.5Q309.31-4.5 310.04-5.33 310.76-6.15 310.76-8L310.76-8Q310.76-10.2 309.76-11.88 308.76-13.55 306.06-15.9L306.06-15.9Q302.66-18.9 301.31-21.33 299.96-23.75 299.96-26.8L299.96-26.8Q299.96-30.95 302.06-33.23 304.16-35.5 308.16-35.5L308.16-35.5Q312.11-35.5 314.14-33.23 316.16-30.95 316.16-26.7L316.16-26.7 316.16-25.25 310.96-25.25 310.96-27.05Q310.96-28.85 310.26-29.68 309.56-30.5 308.21-30.5L308.21-30.5Q305.46-30.5 305.46-27.15L305.46-27.15Q305.46-25.25 306.49-23.6 307.51-21.95 310.21-19.6L310.21-19.6Q313.66-16.6 314.96-14.15 316.26-11.7 316.26-8.4L316.26-8.4Q316.26-4.1 314.14-1.8 312.01 0.5 307.96 0.5L307.96 0.5ZM327.36 0.5Q323.31 0.5 321.16-1.8 319.01-4.1 319.01-8.3L319.01-8.3 319.01-26.7Q319.01-30.9 321.16-33.2 323.31-35.5 327.36-35.5L327.36-35.5Q331.41-35.5 333.56-33.2 335.71-30.9 335.71-26.7L335.71-26.7 335.71-8.3Q335.71-4.1 333.56-1.8 331.41 0.5 327.36 0.5L327.36 0.5ZM327.36-4.5Q330.21-4.5 330.21-7.95L330.21-7.95 330.21-27.05Q330.21-30.5 327.36-30.5L327.36-30.5Q324.51-30.5 324.51-27.05L324.51-27.05 324.51-7.95Q324.51-4.5 327.36-4.5L327.36-4.5ZM339.41 0L339.41-35 344.91-35 344.91-5 353.96-5 353.96 0 339.41 0ZM364.6 0.5Q360.6 0.5 358.5-1.78 356.4-4.05 356.4-8.3L356.4-8.3 356.4-35 361.9-35 361.9-7.9Q361.9-6.1 362.63-5.3 363.35-4.5 364.7-4.5L364.7-4.5Q366.05-4.5 366.78-5.3 367.5-6.1 367.5-7.9L367.5-7.9 367.5-35 372.8-35 372.8-8.3Q372.8-4.05 370.7-1.78 368.6 0.5 364.6 0.5L364.6 0.5ZM381 0L381-30 375.25-30 375.25-35 392.25-35 392.25-30 386.5-30 386.5 0 381 0ZM394.9 0L394.9-35 400.4-35 400.4 0 394.9 0ZM412.45 0.5Q408.4 0.5 406.25-1.8 404.1-4.1 404.1-8.3L404.1-8.3 404.1-26.7Q404.1-30.9 406.25-33.2 408.4-35.5 412.45-35.5L412.45-35.5Q416.5-35.5 418.65-33.2 420.8-30.9 420.8-26.7L420.8-26.7 420.8-8.3Q420.8-4.1 418.65-1.8 416.5 0.5 412.45 0.5L412.45 0.5ZM412.45-4.5Q415.3-4.5 415.3-7.95L415.3-7.95 415.3-27.05Q415.3-30.5 412.45-30.5L412.45-30.5Q409.6-30.5 409.6-27.05L409.6-27.05 409.6-7.95Q409.6-4.5 412.45-4.5L412.45-4.5ZM424.49 0L424.49-35 431.39-35 436.74-14.05 436.84-14.05 436.84-35 441.74-35 441.74 0 436.09 0 429.49-25.55 429.39-25.55 429.39 0 424.49 0Z" opacity="1" transform="matrix(1,0,0,1,0,0)" fill="#ffffff" class="undefined-text-1" data-fill-palette-color="secondary" id="text-1"></path></svg></g></svg></g></svg></g></svg></g><g></g></svg></g></svg><rect width="395.52" height="141.93630118611452" fill="none" stroke="none" visibility="hidden"></rect></g></svg></g></svg>